<svg width="65" height="59" viewBox="0 0 65 59" fill="none" xmlns="http://www.w3.org/2000/svg">
<path d="M64.9622 18.4214C64.9625 17.8642 64.8028 17.3175 64.5002 16.8402L55.7479 2.97812C55.1713 2.07192 54.359 1.32196 53.3892 0.800385C52.4194 0.278812 51.3246 0.00317932 50.2103 0H15.0977C12.8425 0 10.7199 1.14213 9.56002 2.98119L0.807712 16.8402C0.505143 17.3175 0.3454 17.8642 0.345704 18.4214C0.345704 21.507 1.5928 24.2978 3.57653 26.4592V55.2641C3.57653 56.0784 3.91692 56.8593 4.52282 57.4351C5.12871 58.0109 5.95049 58.3344 6.80736 58.3344H32.654C33.5108 58.3344 34.3326 58.0109 34.9385 57.4351C35.5444 56.8593 35.8848 56.0784 35.8848 55.2641V39.913H48.8081V55.2641C48.8081 56.0784 49.1485 56.8593 49.7544 57.4351C50.3603 58.0109 51.182 58.3344 52.0389 58.3344H58.5006C59.3574 58.3344 60.1792 58.0109 60.7851 57.4351C61.391 56.8593 61.7314 56.0784 61.7314 55.2641V26.4592C63.7151 24.2978 64.9622 21.507 64.9622 18.4214ZM58.4489 19.192C58.2501 20.6746 57.4897 22.0377 56.3099 23.026C55.1301 24.0144 53.6117 24.5604 52.0389 24.5618C48.4753 24.5618 45.5773 21.8078 45.5773 18.4214C45.5773 18.2126 45.4965 18.0284 45.4513 17.8319L45.5159 17.8196L43.0572 6.14046H50.2103L58.4489 19.192ZM26.2149 18.6209L28.8384 6.14046H36.4663L39.093 18.6209C38.9799 21.9153 36.1433 24.5618 32.654 24.5618C29.1647 24.5618 26.328 21.9153 26.2149 18.6209ZM15.0977 6.14046H22.2507L19.7953 17.8196L19.8599 17.8319C19.8114 18.0284 19.7307 18.2126 19.7307 18.4214C19.7307 21.8078 16.8326 24.5618 13.269 24.5618C11.6962 24.5604 10.1779 24.0144 8.99805 23.026C7.81824 22.0377 7.05781 20.6746 6.85905 19.192L15.0977 6.14046ZM26.1923 42.9832H13.269V33.7725H26.1923V42.9832Z" fill="white"/>
</svg>
