<svg width="79" height="49" viewBox="0 0 79 49" fill="none" xmlns="http://www.w3.org/2000/svg">
<path d="M76.9406 13.9079L42.6622 0.992963C40.5094 0.182033 38.1115 0.182033 35.9584 0.992963L1.68031 13.9079C0.878948 14.2096 0.353027 14.9462 0.353027 15.7652C0.353027 16.5847 0.879338 17.3208 1.68031 17.623L6.47872 19.4307V32.363C5.41284 33.0536 4.71279 34.217 4.71279 35.5356C4.71279 36.7435 5.30024 37.8207 6.21769 38.5242L4.7564 45.192C4.56044 46.0866 4.79848 47.0179 5.40544 47.7266C6.01201 48.4357 6.92243 48.8471 7.88352 48.8471H9.61678C10.5783 48.8471 11.4883 48.4357 12.0949 47.7266C12.7014 47.0179 12.9395 46.0866 12.7439 45.192L11.2822 38.5242C12.2 37.8207 12.7875 36.7431 12.7875 35.5356C12.7875 34.2167 12.0875 33.0536 11.0216 32.363V21.1422L35.8489 30.4971C38.0726 31.3351 40.5483 31.3351 42.772 30.4971L76.9414 17.623C77.7427 17.3212 78.2687 16.5847 78.2687 15.7652C78.2683 14.9462 77.742 14.2096 76.9406 13.9079Z" fill="white"/>
</svg>
