<svg width="78" height="49" viewBox="0 0 78 49" fill="none" xmlns="http://www.w3.org/2000/svg">
<path d="M38.9566 33.7659C37.348 33.7659 35.7737 33.4804 34.2778 32.9172L14.7339 25.5529C14.7339 29.6557 14.7339 35.7913 14.7339 37.4265C14.7339 43.1889 25.5781 47.859 38.9569 47.859C52.3358 47.859 63.1812 43.1889 63.1812 37.4265V25.5525L43.6354 32.9172C42.1394 33.4804 40.5651 33.7659 38.9566 33.7659Z" fill="white"/>
<path d="M76.5876 13.5231L42.3092 0.608197C40.1564 -0.202732 37.7585 -0.202732 35.6053 0.608197L1.32728 13.5231C0.525921 13.8249 0 14.5614 0 15.3805C0 16.1999 0.526311 16.936 1.32728 17.2382L6.1257 19.0459V31.9782C5.05982 32.6688 4.35976 33.8323 4.35976 35.1509C4.35976 36.3587 4.94721 37.4359 5.86466 38.1394L4.40337 44.8072C4.20741 45.7018 4.44545 46.6331 5.05241 47.3418C5.65898 48.0509 6.56941 48.4623 7.53049 48.4623H9.26375C10.2252 48.4623 11.1353 48.0509 11.7418 47.3418C12.3484 46.6331 12.5864 45.7018 12.3909 44.8072L10.9292 38.1394C11.847 37.4359 12.4345 36.3584 12.4345 35.1509C12.4345 33.8319 11.7344 32.6688 10.6685 31.9782V20.7574L35.4959 30.1123C37.7196 30.9503 40.1953 30.9503 42.419 30.1123L76.5883 17.2382C77.3897 16.9364 77.9156 16.1999 77.9156 15.3805C77.9152 14.5614 77.3889 13.8249 76.5876 13.5231Z" fill="white"/>
</svg>
